<?xml version="1.0" standalone="no"?>
<!DOCTYPE svg PUBLIC "-//W3C//DTD SVG 20010904//EN"
 "http://www.w3.org/TR/2001/REC-SVG-20010904/DTD/svg10.dtd">
<svg version="1.0" xmlns="http://www.w3.org/2000/svg"
 width="700.000000pt" height="700.000000pt" viewBox="0 0 700.000000 700.000000"
 preserveAspectRatio="xMidYMid meet">
<metadata>
Created by potrace 1.14, written by Peter Selinger 2001-2017
</metadata>
<g transform="translate(0.000000,700.000000) scale(0.100000,-0.100000)"
fill="#000000" stroke="none">
<path d="M3328 6885 c-2 -2 -48 -6 -103 -9 -55 -4 -109 -9 -120 -11 -11 -2
-42 -7 -70 -10 -155 -18 -498 -99 -636 -151 -24 -9 -69 -25 -99 -36 -30 -12
-77 -31 -105 -43 -27 -12 -79 -35 -115 -51 -686 -302 -1262 -857 -1611 -1554
-173 -345 -302 -752 -335 -1053 -3 -29 -7 -57 -9 -64 -30 -93 -26 -696 5 -888
5 -33 12 -77 16 -99 7 -45 10 -63 24 -131 6 -27 12 -59 14 -70 2 -11 14 -56
26 -99 134 -498 399 -1000 726 -1376 160 -184 407 -405 609 -545 303 -210 731
-412 1040 -491 220 -56 308 -75 425 -90 25 -3 56 -7 70 -9 125 -21 563 -28
725 -12 421 40 781 140 1163 323 367 175 655 377 933 654 269 268 466 540 641
885 113 224 229 533 273 735 20 91 55 285 60 335 4 33 9 68 11 78 9 49 18 254
18 442 l1 210 -1172 0 c-868 0 -1170 -3 -1165 -11 4 -6 30 -38 58 -70 28 -33
70 -81 93 -108 23 -27 48 -54 54 -61 7 -7 66 -76 132 -153 l120 -141 663 0
c365 -1 661 -5 658 -9 -2 -4 -7 -37 -11 -72 -3 -36 -8 -72 -10 -80 -2 -8 -7
-35 -10 -60 -4 -25 -15 -85 -26 -135 -93 -424 -282 -816 -562 -1169 -86 -108
-299 -326 -382 -392 -27 -21 -52 -41 -55 -44 -9 -10 -153 -115 -200 -147 -142
-95 -339 -200 -501 -267 -84 -34 -313 -112 -354 -120 -11 -3 -60 -13 -110 -24
-83 -19 -109 -24 -205 -38 -19 -3 -46 -7 -60 -10 -135 -23 -562 -22 -720 1
-147 22 -205 32 -228 39 -9 3 -29 7 -44 10 -46 8 -246 66 -329 96 -173 63
-343 144 -518 247 -73 43 -301 199 -311 213 -3 4 -34 31 -70 61 -171 141 -377
375 -513 584 -92 140 -84 128 -160 275 -145 279 -224 516 -282 835 -41 229
-50 590 -20 820 19 146 18 140 47 280 89 434 329 911 636 1263 370 425 870
737 1403 876 204 53 330 74 554 91 77 6 324 6 395 0 106 -9 165 -15 185 -19
11 -2 43 -7 70 -10 28 -4 65 -10 83 -12 18 -3 92 -20 165 -39 358 -90 706
-258 1032 -500 39 -28 77 -58 85 -66 8 -8 31 -27 50 -43 113 -92 291 -281 409
-433 l63 -82 71 52 c40 29 138 102 220 161 93 68 145 112 140 119 -14 24 -128
174 -177 232 -88 106 -358 367 -466 451 -318 247 -655 431 -1020 557 -166 58
-430 123 -577 142 -13 2 -40 6 -60 9 -21 3 -63 8 -93 11 -30 3 -77 8 -105 11
-46 6 -442 13 -447 9z"/>
<path d="M3201 5589 c-81 -24 -133 -91 -134 -173 -2 -139 131 -221 261 -161
66 30 101 93 96 170 -7 110 -121 193 -223 164z"/>
<path d="M3795 5437 c-109 -62 -78 -210 46 -218 66 -5 119 47 119 115 0 51
-19 80 -70 106 -48 25 -46 25 -95 -3z"/>
<path d="M3419 5126 c-81 -28 -125 -76 -154 -169 -14 -44 -15 -63 -7 -80 6
-12 14 -32 17 -45 4 -12 18 -37 33 -54 15 -18 20 -28 12 -23 -10 5 -8 1 4 -13
10 -12 21 -21 25 -20 3 1 24 -7 46 -17 51 -23 129 -23 180 0 22 11 47 19 55
19 8 1 30 32 49 69 41 83 45 141 13 208 -12 25 -22 49 -22 53 0 4 -10 17 -21
29 -12 12 -19 16 -14 9 4 -8 -11 -2 -33 12 -49 30 -130 40 -183 22z"/>
<path d="M2830 4539 c0 -87 2 -98 18 -97 9 0 40 -3 67 -6 35 -4 45 -3 35 4
-13 8 -12 10 4 10 16 0 17 -5 12 -32 -4 -18 -6 -139 -5 -268 1 -279 0 -260 11
-260 4 0 8 -8 8 -17 0 -15 -2 -16 -10 -3 -14 22 -13 -5 1 -32 8 -15 8 -19 0
-13 -13 7 -9 -35 5 -56 5 -8 3 -9 -5 -4 -10 6 -11 3 -2 -14 8 -14 8 -21 1 -21
-5 0 -10 -5 -10 -11 0 -5 3 -8 8 -6 4 3 7 -6 7 -19 0 -13 -4 -24 -10 -24 -5 0
-3 -5 5 -10 11 -7 11 -10 2 -10 -9 0 -10 -5 -2 -19 7 -14 7 -22 -1 -27 -8 -4
-7 -9 2 -15 12 -8 11 -11 -1 -19 -8 -5 -10 -10 -5 -10 8 0 11 -43 6 -92 -1 -4
-7 -13 -14 -20 -6 -7 -32 -38 -57 -68 -25 -30 -47 -57 -50 -60 -3 -3 -78 -93
-165 -200 -88 -107 -164 -200 -170 -206 -5 -6 -41 -50 -80 -98 -38 -49 -85
-106 -102 -128 -67 -81 -142 -205 -163 -268 -33 -96 -33 -294 -1 -400 30 -98
71 -176 127 -246 26 -31 40 -53 33 -49 -8 5 -5 -1 5 -13 11 -12 23 -22 28 -22
5 0 30 -18 56 -39 52 -44 166 -104 227 -119 62 -16 128 -22 288 -24 91 -2 147
-7 147 -13 0 -6 3 -6 8 1 9 13 42 14 42 1 0 -5 5 -5 13 1 8 7 18 7 27 2 9 -5
19 -5 27 2 10 8 13 7 13 -3 0 -12 2 -12 9 -1 11 17 21 17 32 0 5 -7 9 -8 9 -2
0 12 29 12 50 -1 9 -5 15 -4 18 3 2 7 8 12 13 12 6 0 8 -4 5 -8 -6 -10 45 -9
61 1 6 4 14 3 18 -3 3 -5 12 -10 18 -10 7 0 6 4 -3 10 -9 6 -10 10 -3 10 6 0
15 -5 18 -10 4 -7 13 -6 27 1 16 8 19 8 13 -1 -6 -9 -2 -9 14 -1 11 7 21 8 21
3 0 -5 7 -9 15 -9 8 0 12 4 9 9 -3 4 0 8 5 8 6 0 11 -5 11 -11 0 -8 6 -7 17 2
15 12 16 12 8 -1 -7 -12 -6 -13 6 -3 12 10 18 10 28 0 9 -9 14 -9 22 3 8 12
12 12 16 2 4 -10 8 -10 21 0 12 10 14 10 8 1 -4 -7 -2 -13 3 -13 6 0 11 4 11
9 0 11 19 9 39 -3 10 -6 12 -5 7 2 -4 7 -2 12 3 12 6 0 11 -4 11 -10 0 -6 9
-6 26 0 33 13 37 13 28 -2 -5 -7 -3 -8 7 -2 20 12 39 14 39 3 0 -6 9 -5 21 2
17 9 20 8 14 -2 -6 -8 -4 -10 5 -4 8 5 73 10 144 11 195 4 263 13 347 45 69
26 168 87 206 125 8 8 21 14 28 14 15 0 42 40 28 40 -4 0 -3 4 2 8 50 36 162
247 174 327 0 6 3 24 6 40 22 133 -3 311 -57 406 -27 49 -267 356 -436 559
-30 36 -62 74 -71 85 -9 11 -71 86 -138 168 l-123 147 2 264 c1 146 6 262 11
259 5 -3 3 4 -5 16 -11 17 -11 25 0 42 8 12 9 18 3 14 -16 -9 -14 98 2 114 10
11 10 13 0 7 -17 -10 -17 45 0 63 10 11 10 13 0 7 -9 -5 -13 0 -13 16 0 18 2
20 10 8 6 -9 10 -10 10 -3 0 6 -4 15 -10 18 -5 3 -10 11 -10 16 0 6 4 8 8 5 5
-3 9 1 9 9 0 8 -4 12 -9 9 -4 -3 -8 22 -8 55 0 34 4 61 9 61 5 0 7 -10 3 -22
-5 -19 -4 -20 10 -7 9 7 14 17 11 22 -2 4 0 7 6 7 5 0 12 -6 14 -12 4 -10 6
-10 6 0 1 10 6 10 21 2 11 -6 20 -7 20 -2 0 5 10 8 21 8 13 -1 23 6 24 17 2 9
-2 17 -8 17 -8 0 -7 3 1 9 8 4 14 12 14 16 0 4 -6 12 -14 16 -7 5 -8 9 -2 9
14 0 14 30 0 30 -7 0 -7 3 -1 8 14 10 15 52 1 52 -6 0 -5 4 3 9 9 6 -250 9
-657 9 l-672 0 0 -99z m991 -169 c0 -8 2 -229 2 -490 l2 -475 25 -35 c13 -19
34 -46 46 -60 43 -49 331 -397 394 -475 35 -44 69 -83 75 -87 5 -4 6 -8 2 -8
-14 0 14 -40 28 -40 8 0 15 -3 15 -7 0 -5 17 -26 37 -48 98 -108 176 -229 189
-294 2 -14 -5 -1 -17 29 -12 30 -42 84 -68 120 -67 95 -199 230 -246 251 -41
17 -137 33 -188 30 -19 -1 -26 2 -21 10 4 8 -2 9 -22 5 -16 -3 -54 -6 -84 -7
-52 -2 -58 0 -99 39 -70 65 -137 77 -222 39 -19 -8 -42 -18 -52 -21 -10 -3
-17 -11 -16 -18 1 -7 -5 -30 -14 -50 -10 -21 -17 -44 -17 -53 0 -11 -13 -15
-57 -17 -72 -1 -217 3 -221 7 -2 2 3 14 12 27 39 60 27 138 -29 187 -47 41
-95 49 -154 25 -76 -32 -114 -128 -76 -194 21 -37 18 -43 -12 -26 -16 8 -66
29 -113 47 -47 18 -107 43 -135 55 -39 19 -52 21 -64 11 -8 -7 7 15 34 49 140
171 269 330 275 334 3 3 25 30 50 60 25 30 55 66 67 80 l23 25 0 496 0 495
325 0 c286 0 325 -2 326 -16z m-1177 -1620 c-36 -44 -68 -80 -71 -80 -5 0 63
86 106 133 48 53 31 26 -35 -53z m1303 -2 c-3 -8 -6 -5 -6 6 -1 11 2 17 5 13
3 -3 4 -12 1 -19z m-1377 -92 c0 -2 -8 -10 -17 -17 -16 -13 -17 -12 -4 4 13
16 21 21 21 13z m-70 -90 c0 -2 -8 -10 -17 -17 -16 -13 -17 -12 -4 4 13 16 21
21 21 13z m-98 -133 c-11 -16 -27 -51 -35 -78 -9 -28 -16 -43 -16 -34 -1 24
26 96 46 123 25 34 30 23 5 -11z m266 -162 c-1 -16 -5 -28 -9 -26 -6 5 0 55 7
55 3 0 3 -13 2 -29z m-1 -73 c-3 -7 -5 -2 -5 12 0 14 2 19 5 13 2 -7 2 -19 0
-25z m-301 -114 c16 -61 60 -150 98 -195 11 -14 5 -9 -14 12 -38 39 -86 127
-95 172 -3 15 -8 39 -11 54 -10 50 6 17 22 -43z m2268 -26 c-17 -59 -50 -118
-89 -163 -32 -36 -27 -25 19 43 28 43 55 102 72 160 2 6 6 12 8 12 3 0 -2 -24
-10 -52z m-2002 -303 c39 -19 65 -35 59 -35 -32 0 -155 76 -178 111 -11 17 -6
14 16 -8 18 -18 65 -48 103 -68z m1834 56 c-16 -18 -136 -87 -136 -78 0 2 29
21 65 42 36 21 65 42 65 47 0 4 5 8 12 8 6 0 4 -8 -6 -19z m-1729 -97 c-3 -3
-12 -4 -19 -1 -8 3 -5 6 6 6 11 1 17 -2 13 -5z m693 -15 c0 -9 -667 -5 -675 3
-4 4 146 6 334 5 188 -1 341 -5 341 -8z m65 -2 c3 -4 2 -5 -1 -2 -4 2 -14 0
-24 -5 -12 -6 -17 -5 -17 5 0 14 31 16 42 2z m62 -2 c5 -4 3 -5 -4 -1 -6 3
-14 2 -18 -4 -7 -12 -25 -4 -25 11 0 11 36 7 47 -6z m173 4 c0 -11 -29 -19
-35 -9 -6 10 -24 8 -44 -4 -9 -6 -12 -5 -8 1 7 11 -42 11 -60 0 -5 -3 -10 0
-10 7 0 9 21 13 79 12 43 0 78 -3 78 -7z m80 1 c0 -5 -16 -9 -35 -8 -45 2 -45
12 0 15 19 1 35 -2 35 -7z m418 5 c-10 -10 -408 -18 -408 -9 0 5 93 10 207 12
114 1 204 0 201 -3z"/>
<path d="M3425 3678 c-34 -12 -82 -43 -108 -70 -23 -24 -60 -105 -52 -117 3
-5 0 -11 -6 -13 -13 -4 2 -71 31 -135 35 -75 131 -129 221 -124 50 2 111 31
148 68 32 32 54 67 49 76 -1 1 5 13 12 27 18 34 13 100 -11 158 -20 47 -79
112 -103 112 -7 0 -21 7 -32 15 -22 17 -105 18 -149 3z"/>
<path d="M4031 4364 c0 -11 3 -14 6 -6 3 7 2 16 -1 19 -3 4 -6 -2 -5 -13z"/>
</g>
</svg>
